<svg id="Layer_1" data-name="Layer 1" xmlns="http://www.w3.org/2000/svg" viewBox="0 0 818.3 262.94"><defs><style>.cls-1{fill:#fff;}</style></defs><path class="cls-1" d="M186.22,625.34c-1.7-.9-3.34-1.89-5-2.86-.21-.12-.57-.22-.51-.52.19-.83-.28-1.65,0-2.49a4.33,4.33,0,0,0,.14-1.69c-.05-1.35-.25-2.67-.36-4A42.38,42.38,0,0,0,177.67,602a54.8,54.8,0,0,0-3.61-7.73c-1.62-2.84-3.37-5.58-5.2-8.28a81.43,81.43,0,0,1-4.52-7.16,50.68,50.68,0,0,1-3.11-8.08c-.1-.31-.12-.59-.52-.66a.68.68,0,0,0-.77.42c-.39,1.26-1.44,2.2-1.81,3.42-1.2,3.89-2.86,7.63-3.17,11.8-.12,1.58.06,3.24-.52,4.79a1.07,1.07,0,0,0,0,.47,40.93,40.93,0,0,0,2,10.79c-.22.41-.13.69.34.8a.56.56,0,0,0,0,.58,1.61,1.61,0,0,0,.42.4.88.88,0,0,0-.05.15.2.2,0,0,0,0,.13.28.28,0,0,0,.18.21c.09.47.34,1-.08,1.4l-.61-.23c-.43-.21-.55-.79-1.06-.91l-.51-.31a.51.51,0,0,0-.49-.71l-.31-.16c-.16-.33-.13-.84-.7-.82l-.26-.16c-.14-.26-.17-.61-.43-.75a.59.59,0,0,0-.14-.06h-.2a3.76,3.76,0,0,1-.69-.56c-.64-.62-1.11-1.39-1.79-2a1.54,1.54,0,0,1-.4-1.82c.87-2.65,1.67-5.32,2.48-8a5.56,5.56,0,0,0,.35-1.53c0-2.42.73-4.8.41-7.26a6.44,6.44,0,0,1-.2-1.63c.26-2.17-.44-4.24-.61-6.37a29,29,0,0,0-1.05-5c-.51-2-1.07-4.12-1.7-6.16a37.38,37.38,0,0,1-1.72-9,15.85,15.85,0,0,1,.3-5.74c.09-.27.27-.65-.16-.8a.78.78,0,0,0-.87.14,42.05,42.05,0,0,0-4.24,4c-1.24,1.45-2.37,3-3.48,4.52a18.41,18.41,0,0,0-3,5.84c-.67,2.38-1.35,4.77-2.18,7.09-.53,1.48-.26,3-.42,4.45a28.44,28.44,0,0,0,.3,4.3,1.94,1.94,0,0,1-.32,1.56c-.33-.1-.28-.36-.39-.52-1.71-2.55-2.91-5.37-4.47-8-.44-.75-1.11-1.83-.31-2.74.63-.72,1.07-1.54,1.65-2.27,2-2.56,4.11-5.08,5-8.32a1.74,1.74,0,0,1,.34-.71,7,7,0,0,0,1.4-3c.51-1.6,1-3.22,1.49-4.83a11,11,0,0,0,.81-3.36,13.13,13.13,0,0,1,.76-4c.45-1.51,0-3.14.65-4.62a.29.29,0,0,0,0-.16c-.31-1.57.15-3.12.31-4.65.05-.48.12-.95.2-1.43a38.53,38.53,0,0,1,3.22-9.49h0l-.06,0,0,.09a1,1,0,0,0-1-.09,36.06,36.06,0,0,0-5.87,2.68,38.52,38.52,0,0,0-7.72,5.76c-1.18,1.11-2,2.49-3,3.69A13.7,13.7,0,0,0,124,535.2c-.93,2.33-2.41,4.43-3,6.92,0,.17-.08.44-.4.39a4.69,4.69,0,0,1-.51-1.56c-.17-1.75-.37-3.48-.58-5.22-.1-.8-.26-1.6-.31-2.41a5.44,5.44,0,0,1,0-.81,2.56,2.56,0,0,1,0-.27,1.7,1.7,0,0,1,.4-.64c.23-.25.51-.46.73-.72h0c.39.12.71.08.8-.4.36,0,.67,0,.77-.43h0a1.42,1.42,0,0,0,.52-.1,4.74,4.74,0,0,0,1.19-1,.94.94,0,0,0,.63-.28l.17-.17a2.68,2.68,0,0,1,.72-.35.77.77,0,0,0,.51-.62c.37,0,.64-.06.71-.46l.17-.29c.37-.13.86-.11.89-.68.42.12.68,0,.74-.46l0,0c.42-.22,1-.31,1-1a.18.18,0,0,0,.11-.23c.23-.19.68-.06.74-.5.82-1.06,1.93-1.83,2.72-3a24,24,0,0,1,1.48-2.19,21,21,0,0,0,3.71-6.29c.75-2,1.76-3.91,2.61-5.88.61-1.44,1.31-2.85,1.83-4.34a2.73,2.73,0,0,1,.46-1c1.08-1.17,1.47-2.73,2.26-4.06s1.75-2.88,2.74-4.26c.21-.28.46-.55.7-.82a3,3,0,0,0,.84-1.6h0a7.12,7.12,0,0,0-2.64-.08,6.17,6.17,0,0,0-.85.2c-.83.26-1.67.48-2.51.71a38.81,38.81,0,0,0-7,2.65,38.87,38.87,0,0,0-13,10.44,18.33,18.33,0,0,0-2.45,3.77c-.11.24-.26.46-.59.37s-.34-.36-.35-.62a1.83,1.83,0,0,1,0-.47,74.53,74.53,0,0,1,2.15-9.53,2.52,2.52,0,0,1,1.94-1.94,34,34,0,0,0,7.89-2.79,35,35,0,0,0,5.18-3.26c1.6-1.2,3.1-2.53,4.66-3.77,1.83-1.47,3.24-3.28,4.92-4.85.77-.71,1-1.67,1.71-2.41a34.58,34.58,0,0,0,3.6-4.55c1.55-2.39,3.83-4,5.62-6.1.33-.38,1-.59,1.39-.95.62-.53.5-1-.26-1.25a6.46,6.46,0,0,0-2-.27c-1.72,0-3.42.15-5.12.2a37.92,37.92,0,0,0-6.82,1.12,24.16,24.16,0,0,0-5.31,1.87,37,37,0,0,0-7.66,4.6c-.55.45-1,1.17-2,1.23a19.77,19.77,0,0,1,1.56-4,15.34,15.34,0,0,0,1.21-2.56,8.68,8.68,0,0,0,.25-.91,13.85,13.85,0,0,0,1.36-2.23c.28-.91,1-1,1.72-.9s1.32.25,2,.38a2.25,2.25,0,0,0,1.21.33c.52.31.93-.09,1.38-.21h0a1,1,0,0,0,1.07,0,3.05,3.05,0,0,0,.32-.22l.31,0c.48.32.71-.19,1.06-.3h0a3.91,3.91,0,0,0,2.5-.52.54.54,0,0,0,.31,0,9.43,9.43,0,0,0,3.34-1.2h0c.31,0,.65,0,.8-.38a.68.68,0,0,0,.77-.45h0a1,1,0,0,0,.79-.4c1.15-.06,1.87-.89,2.68-1.54l.08,0v-.09c.24-.07.63.24.71-.27,1.53-1.25,3.14-2.42,4.59-3.76,2-1.88,4-3.88,6-5.82a13,13,0,0,0,1.71-1.5,7.06,7.06,0,0,1,1.78-1.54,66.51,66.51,0,0,1,5.42-3.86c.35-.2.34-.52,0-.71-.23-.12-.51-.13-.75-.24a10.72,10.72,0,0,0-3.85-.5c-1.64-.08-3.26-.31-4.92-.28a43,43,0,0,0-10.19,1.52,24.29,24.29,0,0,0-5.8,2.33c-1.48.84-3,1.62-4.57,2.48-.07-1.23,1-1.72,1.26-2.56.62-1.77,2.07-2.95,3-4.48.24-.4.65-1,1.24-.77,1.08.38,2.2.13,3.27.31,3.46.58,6.8-.11,10.12-.95a26.52,26.52,0,0,0,6.06-2.38,52.21,52.21,0,0,0,10.17-7.34c2-1.75,4-3.4,6.06-5s4.57-3,6.83-4.52c.23-.15.48-.24.48-.53s-.26-.43-.53-.48a39.8,39.8,0,0,0-5.6-.9,51.36,51.36,0,0,0-10.78.67,37,37,0,0,0-11.57,4c-.44.25-.91.75-1.54.36a1,1,0,0,1,.31-1,22.67,22.67,0,0,1,6-4.7,88.72,88.72,0,0,0,10.3-5.31c1.63-1.06,3.33-2.07,4.83-3.26a74.38,74.38,0,0,0,8.09-7.29c1.74-1.85,3.33-3.81,5-5.73,1-1.18,1.83-2.51,2.75-3.75s2-2.55,2.89-3.89a80.19,80.19,0,0,1,5.27-6.6c1.3-1.65,2.87-3.1,4.3-4.65.25-.26.52-.55.16-1.05a29.29,29.29,0,0,1-3.8,1.9c-3.05,1.56-6.17,3-9.3,4.36-2.31,1-4.64,2-6.92,3.13a53.5,53.5,0,0,0-6,3.31,56.87,56.87,0,0,0-9.58,7.86,8.86,8.86,0,0,0-.91.82c-2.4,3.19-5,6.22-6.81,9.83-1.26,2.48-2.26,5.07-3.49,7.55-1.12,2.25-1.72,4.78-3.89,6.44-.51.38-.75,1.13-1.75,1.26.21-.69.38-1.22.54-1.76,1.09-3.57,2.2-7.14,3.27-10.72a12.87,12.87,0,0,0,.56-3.4,24.65,24.65,0,0,1,.32-3.55,29.71,29.71,0,0,0,.23-3.86,20.25,20.25,0,0,0,.22-2.91,33.65,33.65,0,0,1-.42-5.11c0-.39,0-.79-.45-.92s-.68.29-.91.64c-.66,1-1.34,2.07-2,3.11a40.1,40.1,0,0,1-2.66,3.59c-.8,1-1.45,2.14-2.21,3.17-1.58,2.12-3.37,4.08-4.85,6.25-.55.8-1.17,1.57-1.68,2.41s-1,2.09-1.64,3a23.41,23.41,0,0,0-2.81,6.8,28.3,28.3,0,0,0-1.27,6.43,23.46,23.46,0,0,0,.75,7.41,16.4,16.4,0,0,0,1.83,4.72c.57.89.66,1.33,0,2.1a29.55,29.55,0,0,0-3.86,5.41,2.3,2.3,0,0,1-1.23,1.34,3.31,3.31,0,0,1,0-2.36c.57-1.92.22-4,1-5.88a2,2,0,0,0,0-.78c0-1.2-.13-2.39-.09-3.59,0-1.51-.17-3-.08-4.53a29.79,29.79,0,0,0-.57-4.23,45.33,45.33,0,0,0-1.7-8.4c-.21-.68-.69-1.31-.61-2s-.38-.92-1-1.21c-.69,2.48-2.22,4.49-2.93,6.87a6.32,6.32,0,0,1-.62,1.62c-1.54,2.36-2.74,4.92-4.06,7.4a50.9,50.9,0,0,0-4.72,12.52,21.19,21.19,0,0,0-.53,8.86c-.18.45.32.7.32,1.09a.83.83,0,0,0-.13.61.75.75,0,0,0-.11.52.6.6,0,0,0,.38.37.75.75,0,0,0-.06.13.38.38,0,0,0,0,.37,10.86,10.86,0,0,0,1,2.88,17,17,0,0,0,2.6,4.43,13,13,0,0,0,1.21,1.26.74.74,0,0,0,0,.47.3.3,0,0,0,.09.13.76.76,0,0,0,.31.16,4.26,4.26,0,0,1,.54.15,2.32,2.32,0,0,1-.39,1.34c-1.27,1.32-1.38,3.26-2.55,4.62a5.24,5.24,0,0,0-.62,1.71,4.51,4.51,0,0,0-1.42,2.61l-.21.5c-.21,0-.53.23-.52-.19a6.08,6.08,0,0,0-.31-1.29l.13-.61a17.78,17.78,0,0,0-.39-3.08l.12-.62a17.65,17.65,0,0,0-.24-2.73,6,6,0,0,0-.53-1.56,1.36,1.36,0,0,0,.08-.32.89.89,0,0,0-.33-.88c0-.09.08-.18.11-.27v0a1.4,1.4,0,0,0,.09-.29,1,1,0,0,0-.06-.6c-.38-.84-.39-1.79-.73-2.62-.4-1-.13-2.13-.79-3a15.74,15.74,0,0,0-1.34-4.06,20.86,20.86,0,0,0-1.51-4.34c-.72-1.52-1.37-3.08-2.1-4.6-.22-.46-.09-1.3-.82-1.28s-.55.79-.7,1.25c-1.6,5.18-3.13,10.37-4.76,15.54A45.17,45.17,0,0,0,111,479.52a22.73,22.73,0,0,0,3.23,9.69,16.43,16.43,0,0,0,3,4,20.61,20.61,0,0,1,1.88,2.1,2.34,2.34,0,0,1,.44,2.45A36.78,36.78,0,0,0,118,504.7a7.14,7.14,0,0,1-1.08,3.31,10.25,10.25,0,0,1-.58-1.52c-.71-2.77-1.44-5.54-2.31-8.27-.48-1.51-1-3-1.5-4.53-1.1-3.42-2.6-6.7-4-10a39.8,39.8,0,0,0-3-5.8c-1-1.51-1.36-3.4-2.93-4.53-.2-.14-.11-.68-.56-.58s-.36.48-.44.77c-.26,1,0,2-.26,3-.75,3.27-.79,6.64-1.25,10-.24,1.69-.06,3.47-.68,5.09s-.36,3.38-.63,5.07a16.62,16.62,0,0,0-.15,4.46c.15,1.31-.21,2.57-.08,3.89a35.53,35.53,0,0,1,.5,3.63,21.16,21.16,0,0,0,1.18,6.21,26.6,26.6,0,0,0,3.15,6.94c2,3,4.16,5.72,7.37,7.45a3.5,3.5,0,0,0,2.17,1.34l.57.21a4.71,4.71,0,0,0,1.8,1.2,1.25,1.25,0,0,1,.88,1.46c0,.33-.07.67-.08,1a2.14,2.14,0,0,0,.2,1l0,.47a1.47,1.47,0,0,0,.16,1.46.5.5,0,0,0,0,.55.59.59,0,0,0,.07.67.85.85,0,0,0,.2.17l-.07.55c-.29.51.06.91.21,1.35v0a3.39,3.39,0,0,0,0,1.52c0,.47-.16.82-.74.62a.48.48,0,0,0-.39-.42c0-.4,0-.76-.53-.82a13.91,13.91,0,0,0-1.8-2.65,27.09,27.09,0,0,1-2.46-3.19,74.41,74.41,0,0,0-5.87-7.58c-2.35-2.73-4.84-5.33-7.36-7.91a52.54,52.54,0,0,0-4.52-4c-.51-.41-.84-1.07-1.59-1.24-.49-.11-.81,0-.63.51a28.83,28.83,0,0,1,.63,3.58c.66,2.69,1,5.44,1.58,8.15.68,3.24,1.26,6.5,1.86,9.75a53.06,53.06,0,0,0,3.92,12.57c2.58,5.6,6,10.62,11.29,14.12a22.7,22.7,0,0,0,6.36,3.27,18.44,18.44,0,0,0,5.53,1.11,2.87,2.87,0,0,1,3.05,2c.83,2.15,2.13,4.11,3.15,6.19a30,30,0,0,1,1.83,3.53,2.6,2.6,0,0,1-1.44-.51c-1.21-.86-2.38-1.79-3.56-2.7A9.76,9.76,0,0,0,123,575a25.43,25.43,0,0,1-5.15-3.21c-1.92-1.36-4-2.42-6-3.64a24.47,24.47,0,0,0-2.68-1.62c-1.68-.75-3.2-1.77-4.9-2.49a19,19,0,0,1-3.85-1.78c-1.9-1.38-4.2-1.59-6.24-2.53a.38.38,0,0,0-.54.14.42.42,0,0,0,.06.57c1.3,1.23,1.74,3,2.65,4.48,1.43,2.34,2.71,4.81,4.14,7.16s2.93,5,4.43,7.53a70.05,70.05,0,0,0,8,10.86,15.48,15.48,0,0,0,1.73,1.8c1.63,1.31,3.1,2.78,4.79,4a36.22,36.22,0,0,0,7.27,4.42,22.33,22.33,0,0,0,9.59,1.92,24.16,24.16,0,0,0,7.6-1,3.09,3.09,0,0,1,3.83.84,40.23,40.23,0,0,0,4,4.07c.69.65,1.33,1.37,2.07,2,.18.15.54.18.4.54s-.45.25-.68.16c-2.71-1-5.67-1.12-8.4-2.11s-5.59-.95-8.3-1.81a1,1,0,0,0-.47-.05,5.74,5.74,0,0,1-2.93-.36c-.41-.1-.88-.33-1.22-.21a3.29,3.29,0,0,1-2.3-.25c-1.71-.61-3.51-.41-5.27-.64s-3.54-.15-5.3-.43c-2.09-.34-4.2-.09-6.32-.3.19,1.19,1.27,1.41,1.88,2.07a14.61,14.61,0,0,0,2.73,2.49c2.37,1.54,4.34,3.55,6.55,5.29,2.4,1.88,4.79,3.8,7.08,5.83,1.36,1.2,3,2,4.39,3.19a32.42,32.42,0,0,0,2.9,2.09c1.12.73,2.43,1,3.5,1.78a36.51,36.51,0,0,0,5.93,2.89c4.27,2,8.93,2.29,13.52,2.68a27,27,0,0,0,7.83-.91,24.53,24.53,0,0,0,7.22-3,2.63,2.63,0,0,1,3.19-.09c.59.41,1.27.7,1.89,1.11,1,.66,2,1.31,3,1.93Z" transform="translate(-90.85 -368.53)"/><path class="cls-1" d="M902.94,477.85c-.73.8-1.67,1.2-2.13,2.08a35.29,35.29,0,0,1-2.8,4c-2,2.85-3.75,5.9-5.52,8.91a41.93,41.93,0,0,0-2.61,5.24c-.76,1.83-1.75,3.54-2.48,5.4-.89,2.21-1.85,4.4-2.68,6.64-.11.29-.15.89-.81.83a9.14,9.14,0,0,1-.5-2.92,39.5,39.5,0,0,0-.84-7.67,2,2,0,0,1,.59-1.66,7.15,7.15,0,0,1,1.47-1.38,21.14,21.14,0,0,0,4-3.87,19.43,19.43,0,0,0,3-4.82,42.41,42.41,0,0,0,2.31-7.82,34.34,34.34,0,0,0,.78-9.25,1.64,1.64,0,0,1,0-.62,7,7,0,0,0-.12-3.43q-1.92-10.65-3.85-21.29a4,4,0,0,0-.2-.92c-.16-.37-.49-.41-.7-.06a7.08,7.08,0,0,0-.91,2,.86.86,0,0,0-.7.52c-.31.69-.64,1.37-1,2.05l0,.32c-.27.17-.67.26-.49.73v0a2.76,2.76,0,0,0-1,1.76.87.87,0,0,0-.48.78,4.63,4.63,0,0,0-1,2c-.39.1-.74.23-.46.74a.49.49,0,0,0,0,.52c-1.49,2-1.84,4.52-2.77,6.77l0,.05a.75.75,0,0,0-.36.25.52.52,0,0,0-.06.42l0,.62c-.11.46-.56.84-.35,1.38l0,.08a10.83,10.83,0,0,0-1.19,4.28l0,.53a1,1,0,0,0-.33.59,1.94,1.94,0,0,0,0,.24c-.16.74-.22,1.51-.35,2.3a8,8,0,0,1-.73,2.45c-.55-2-1.49-3.51-1.75-5.29a2.37,2.37,0,0,0-.34-1c-.94-1.31-1.08-2.94-1.85-4.32-.41-.73,0-1.17.69-1.4,1.31-.95,2.13-2.39,3.37-3.43.24-.2.8-.54.6-1.13h0a2.39,2.39,0,0,0,1-1.76.15.15,0,0,0,0-.23,1.44,1.44,0,0,0,.37-1.13.65.65,0,0,0,.48-.48,2,2,0,0,0,0-.25.19.19,0,0,0,.09-.05.11.11,0,0,0,0-.1,11.44,11.44,0,0,0,.91-4c.5-.21.33-.6.27-1a1.8,1.8,0,0,0,.35-1.36,1.88,1.88,0,0,0-.1-1,5.55,5.55,0,0,0,0-3.18,10.84,10.84,0,0,0-.39-2.53,12.14,12.14,0,0,0-.92-4.91,6.94,6.94,0,0,0-.39-1.85,8.18,8.18,0,0,0-1.23-3.61,4.41,4.41,0,0,0-.38-1.55,3.36,3.36,0,0,0-.91-1.76,3.88,3.88,0,0,0-.38-1.53c0-.73-.68-1.13-.91-1.75a2,2,0,0,0-.38-1.21,5.39,5.39,0,0,0-.92-2.41,5.5,5.5,0,0,0-.5-2.15,7.24,7.24,0,0,0-1.22-3.29,3.1,3.1,0,0,0-.38-1.55,1,1,0,0,0-.15-.75c-.1-.16-.12-.46-.42-.34s-.26.31-.25.53c-.28,0-.53.08-.51.44a2.41,2.41,0,0,1-.31,1.14,64.79,64.79,0,0,0-4.07,12.38c-.26,1-.1,2-.38,3A26.83,26.83,0,0,0,866,436a61.71,61.71,0,0,0,0,7.93,6.26,6.26,0,0,1-.34,3.14,8,8,0,0,1-1.12-1.82c-.53-2-1.77-3.5-2.78-5.18-.72-1.2-.8-1.44.13-2.44a3.45,3.45,0,0,0,.65-1c.72-1.88,1.92-3.54,2.34-5.54a29.74,29.74,0,0,0,.82-3.9,37.16,37.16,0,0,0-2.53-15.29,15.5,15.5,0,0,0-.9-2.19c-1.15-2.11-2.41-4.17-3.54-6.3-1-1.86-2.29-3.51-3.2-5.45-1-2.13-2.49-4-3.52-6.19-.47-1-1-2-1.45-3-.14-.26-.26-.6-.7-.45a.81.81,0,0,0-.55.7c-.08.41.12.81,0,1.24a31.64,31.64,0,0,0-1.15,7.81c-.07,1.24-.11,2.5-.21,3.74A24.48,24.48,0,0,0,848,408c.61,3.79,1.35,7.56,2,11.34.09.5.19,1,.28,1.48a2.32,2.32,0,0,1-1.34-.85,19.41,19.41,0,0,1-2.52-4.77c-.84-2.54-1.58-5.11-2.32-7.66a43.6,43.6,0,0,0-1.81-4.63,25.37,25.37,0,0,0-2.74-5.33c-.83-1.11-1.29-2.54-2.24-3.53-1.53-1.6-2.76-3.44-4.31-5a60.07,60.07,0,0,0-7.72-6.72,74.89,74.89,0,0,0-6.6-4.17q-6.06-3.48-11.9-7.34a24,24,0,0,1-2.42-1.65,1.62,1.62,0,0,0-1.31-.56,4.48,4.48,0,0,0,1.35,2.07.64.64,0,0,0,.24.56.73.73,0,0,0,.24.35,1.68,1.68,0,0,0,.37.21c0,.06,0,.11,0,.16a.54.54,0,0,0,.22.4A4.7,4.7,0,0,0,807,374l.21.61c0,.4.44.34.64.52a3.61,3.61,0,0,0,.37,1.19,47.69,47.69,0,0,1,3.7,5.82c1.64,2.75,3,5.66,4.79,8.31.78,1.13,1.34,2.45,2.14,3.53a73.37,73.37,0,0,0,6.41,7.89c1.78,1.8,3.62,3.55,5.44,5.32a22.87,22.87,0,0,0,3.81,2.84v0a4.92,4.92,0,0,0,2.21,1.48l0,0c0,.45.34.52.7.49l0,0c0,.45.32.56.72.47a2.94,2.94,0,0,0,.91.6c3.36,2,6.64,4.12,8.67,7.64,0,.43,0,.83-.57.82a32.63,32.63,0,0,0-7.88-4.56,13.14,13.14,0,0,0-2.25-.92c-2.37-.42-4.55-1.72-7-1.55-3.56-1.24-7.23-.65-10.86-.62-.32,0-.67,0-.79.39s.27.5.49.69c1.75,1.49,3.64,2.8,5.31,4.39,2.27,2.16,4.43,4.41,6.54,6.71,1,1.11,2.06,2.21,3.11,3.29a37,37,0,0,0,5.79,4.84,32.23,32.23,0,0,0,8.75,4.29,31.75,31.75,0,0,0,9.86,1.12,1.62,1.62,0,0,1,1.64.82,23,23,0,0,0,1.14,2c.89,1.62,1.48,3.4,2.48,5-.23.38-.56.33-.91.24l0,0a1.11,1.11,0,0,0-.67-.53h0c-.11-.35-.44-.41-.71-.54l-.32-.2a.46.46,0,0,0-.3-.38l-.18,0,0,0a41.31,41.31,0,0,0-5.29-3.1,33.63,33.63,0,0,0-3.44-1.43,77.35,77.35,0,0,0-7.57-2c-1.39-.34-2.76,0-4.15-.31a24.21,24.21,0,0,0-3.1-.15,11.35,11.35,0,0,0-2.5.32c-.5.09-.61.39-.26.77s.56.48.83.72a40.56,40.56,0,0,1,5,4.54c1.41,1.77,3,3.35,4.35,5.23a45.77,45.77,0,0,0,5.5,6.48,40.3,40.3,0,0,0,7.33,5.62,30.06,30.06,0,0,0,6.65,2.71,9.57,9.57,0,0,0,5.46.51,5.57,5.57,0,0,1,1.72.07c.32,0,.65.1.72.48.27,1.56,1.29,2.85,1.56,4.42a7.58,7.58,0,0,0,.66,1.75,20.1,20.1,0,0,1,1.14,4.54,4.74,4.74,0,0,1-1.64-1.27c-.65-.26-.67-1.27-1.52-1.3h0a.8.8,0,0,0-.42-.58,7.92,7.92,0,0,1-1.74-1.4,5.8,5.8,0,0,0-2.6-1.72.66.66,0,0,0-.76-.48c-.23-.73-1-.72-1.49-1-.15-.32-.42-.2-.66-.19-.27-.68-1-.51-1.5-.85-1.62-1-3.49-1.26-5.24-1.87a39.6,39.6,0,0,0-6.34-1.37,9.45,9.45,0,0,0-3.6-.16c-.86.19-1.06.6-.52,1.29s1.12.86,1.53,1.47c1.49,2.19,3.45,4,4.65,6.45.78,1.61,1.89,3.1,2.84,4.65.76,1.23,1.37,2.53,2.22,3.71a61.3,61.3,0,0,0,4.67,5.6,46,46,0,0,0,6.67,6.2,30.09,30.09,0,0,0,7.42,4c.68.25,1.38.45,2,.76a1.39,1.39,0,0,1,.81,1.06A68.05,68.05,0,0,1,880.93,511a.43.43,0,0,1,0,.16c0,.44-.31.46-.66.31a1.11,1.11,0,0,1-.58-.88,12.73,12.73,0,0,0-1.39-2.93,36,36,0,0,0-3.91-5.32,41.35,41.35,0,0,0-3.73-3.76,38,38,0,0,0-7.26-5.07c-1.73-1-3.66-1.57-5.47-2.39a7.72,7.72,0,0,0-4.09-.79,1.44,1.44,0,0,0,.33,1.34c1.88,2.16,2.66,4.89,3.75,7.44a38.75,38.75,0,0,1,2.27,6.69,36.93,36.93,0,0,0,1.7,5.57c.82,2,1.18,4.1,2.14,6.06.79,1.62,1.84,3.09,2.54,4.77a19.07,19.07,0,0,0,2.35,3.34,35.22,35.22,0,0,0,4.6,4.93,40.54,40.54,0,0,0,4.28,3.33,2.45,2.45,0,0,1,1,2.74c-.45,2.14-1.21,4.2-1.47,6.4a3.12,3.12,0,0,1-1,2.36c-.29-.13-.29-.36-.31-.55-.19-2.55-1.65-4.76-2-7.27a1.33,1.33,0,0,0-.25-.57,41.39,41.39,0,0,1-2.48-4.28,31.77,31.77,0,0,0-6.77-8,38.77,38.77,0,0,0-6.32-4.39,3.81,3.81,0,0,0-2.46-.88c.38,1.47.75,2.9,1.11,4.32a39,39,0,0,1,1,10.92,34,34,0,0,0,.07,7.2,4.52,4.52,0,0,1,.12,1.1c-.26,3.63.82,7.08,1.42,10.6a5,5,0,0,0,.46,1.34,9,9,0,0,1,.94,2.83c.22,1.67,1.18,3,1.85,4.48a30.21,30.21,0,0,0,2.84,4.79c1.05,1.48.54,2.54-.17,3.61-1.56,2.34-3.25,4.58-4.92,6.83-.25.33-.39.85-1,1a10.65,10.65,0,0,1,.38-3.54c.45-2.53.91-5,.31-7.6-.17-.72-.2-1.47-.34-2.19-.73-3.73-1.16-7.54-3.34-10.86-1.34-2-2.38-4.27-4-6.12-.81-.93-1.65-1.81-2.46-2.73A.75.75,0,0,0,849,545c-.41.12-.31.49-.32.79a2.46,2.46,0,0,0,0,.47c.57,2.67-.45,5.2-.81,7.77a21,21,0,0,1-1.75,5.2c-1.19,2.76-2.35,5.52-3.36,8.33a19.42,19.42,0,0,0-1.32,3.74c-.29,2.11-1.08,4.09-1.42,6.19a47.12,47.12,0,0,0-.61,5.38,25.53,25.53,0,0,0,.53,7.33c.48,1.88.67,3.84,1.12,5.73a1.72,1.72,0,0,1-.79,2c-2.06,1.6-4.13,3.16-6.16,4.78a2.53,2.53,0,0,1-1.72.61,1.33,1.33,0,0,1,.37-1.29,19.21,19.21,0,0,0,2.44-5.29c1-3,2.19-6,1.8-9.28a1.08,1.08,0,0,1,0-.31,22.51,22.51,0,0,0-.07-7c-.12-.67-.21-1.35-.27-2a43,43,0,0,0-1.42-6.46c-.27-1.08-1-2-1.24-3.19-.06-.3-.24-.6-.65-.54s-.47.2-.63.54c-.69,1.43-1.31,2.89-2,4.32a36.91,36.91,0,0,1-5.51,7.82c-1.75,2-3.5,4-5.15,6a66.08,66.08,0,0,0-5.6,8,36.34,36.34,0,0,0-2.23,4.05c-.86,2-1.79,4-2.47,6.17-.76,2.34-1.2,4.73-1.83,7.09-.41,1.53,0,3.13-.43,4.66-.12.43-.19.77-.64,1-1.55.74-3.17,1.35-4.74,2.06l-.45.2,1,5.2c1.67-.79,3.39-1.5,5.05-2.33a2.75,2.75,0,0,1,3.27.47,25.55,25.55,0,0,0,4.42,2.73,28.72,28.72,0,0,0,5,1.8,24.31,24.31,0,0,0,7.2.94,39.85,39.85,0,0,1,4.09,0,23.53,23.53,0,0,0,8.67-1.37,97,97,0,0,0,9.13-3.36c.78-.35,1.39-.9,2.14-1.27,1.58-.78,3-1.75,4.59-2.6,1.12-.61,2.1-1.44,3.21-2,2.38-1.24,4.55-2.82,6.79-4.26,3.25-2.08,6.58-4.08,9.69-6.38.37-.27.91-.52.88-1.28-1.31.31-2.49-.26-3.75-.25-2.35,0-4.71,0-7.06-.15a24.9,24.9,0,0,0-6.68,0,1.76,1.76,0,0,1-.78.07c-1.85-.66-3.73.57-5.57-.12-2.32.56-4.73.12-7,.62-3.31.7-6.72.52-10,1.33-.3.08-.65.13-.74-.33.18-.38.64-.33.9-.56,1.89-1.63,4.07-2.92,5.84-4.68,1.3-1.29,2.71-1.75,4.38-.91a18.22,18.22,0,0,0,4.18,1.41,27.8,27.8,0,0,0,9.23.49c4.9-.47,9-2.88,13.2-5.16a29.16,29.16,0,0,0,4.6-3.39,69.93,69.93,0,0,0,6.46-6.31c2.6-2.88,4.83-6,7.16-9.13a25.54,25.54,0,0,0,1.93-2.39c.9-1.56,2.21-2.81,3.17-4.32s2.15-2.8,3.18-4.23c.48-.67.74-1.5,1.48-2a.54.54,0,0,0,.22-.8c-.22-.34-.49-.16-.81-.06-2.39.76-4.86,1.14-7.23,2.07-2.82,1.11-5.8,1.86-8.55,3.14-2.36,1.11-4.82,2-7.15,3.16-.83.42-1.61.93-2.49,1.28a50.22,50.22,0,0,0-4.91,2.34,52.28,52.28,0,0,0-5.4,3.22,3.8,3.8,0,0,1-2,.57c2.42-3.38,4.69-6.55,6.72-9.87a1.81,1.81,0,0,1,1.22-.81c1.22-.38,2.38.23,3.59,0,1.92-.31,3.84-.61,5.74-1.06a4.37,4.37,0,0,0,1.47-.53,20.7,20.7,0,0,1,3.36-1.61,25.54,25.54,0,0,0,5.9-4.3,21,21,0,0,0,4.51-5.24c.27-.15.51-.32.5-.67l0,0a.69.69,0,0,0,.48-.71l0,0a.67.67,0,0,0,.48-.7l0,0a.87.87,0,0,0,.48-.7l0,0a3.74,3.74,0,0,0,.36-.45,1.09,1.09,0,0,0,.18-.54.11.11,0,0,0,0-.18,1,1,0,0,0,.64-.95l0,0c.79-.34.6-1.14.83-1.74l.39-.61a6.27,6.27,0,0,0,.75-1.43c.78-2.42,1.9-4.74,2.47-7.24.74-.52.54-1.43.87-2.11.22-.21.14-.45.06-.69.25-.16.19-.45.29-.68a.77.77,0,0,0,.19-.79c0-.11,0-.22,0-.32v-.17a3.3,3.3,0,0,0,1-1.88c.09-.42.16-.85.25-1.27,0-.19,0-.39,0-.58.29-.18.49-.4.38-.77,0-.19,0-.37,0-.56.48-.09.58-.38.42-.81.68-1,.53-2.36,1.08-3.48.92-1.85,1-4,1.88-5.88a.35.35,0,0,0-.41-.49,2.08,2.08,0,0,0-1,.37c-.72.68-1.67,1-2.41,1.64-1.45,1.31-3.35,2.06-4.68,3.55-.4,0-.61.18-.56.61-.21.07-.44.1-.53.35-.4.23-.8.45-1.18.7a3.72,3.72,0,0,0-1,.94.11.11,0,0,0-.09,0s0,0,0,.09c-.42.45-1.11.63-1.37,1.22a1,1,0,0,0-.09.28.14.14,0,0,0-.11,0,.22.22,0,0,0-.07.09,5.91,5.91,0,0,0-2.44,2.39h0l-.15,0a1.25,1.25,0,0,0-.41.15c-.33.24-.63.49-.93.75-.87.8-1.63,1.72-2.44,2.59h0a4.14,4.14,0,0,1-.84.64,1.36,1.36,0,0,0-.62.86s-.06,0-.08,0a.1.1,0,0,0-.05.06.66.66,0,0,0-.22.12,2.1,2.1,0,0,0-.37.59l0,.1-.05-.09c-.46.62-1.36.82-1.61,1.64a7,7,0,0,0-1.75,2.26,1.34,1.34,0,0,0-.37.08.32.32,0,0,0-.19.33h0l-.52.51c-.43,0-.48.38-.53.7-.8,0-.84,1.21-1.73,1.07-.23-.2-.15-.45-.09-.71q.62-2.71,1.21-5.43c.14-1,.34-2,.4-3,0-.48.27-1,.51-1.07.87-.25,1.41-1.1,2.34-1.2,1.45-.15,2.59-1.08,3.84-1.68a9.55,9.55,0,0,0,1.83-.86,32.87,32.87,0,0,0,5.64-5.48,33.88,33.88,0,0,0,6.15-13.88,27.06,27.06,0,0,0,.71-4.83c.06-1.91.45-3.8.56-5.71.16-2.77-.22-5.52-.11-8.3.07-2.09,0-4.19.06-6.28,0-1.68,0-3.36-.1-5a6.71,6.71,0,0,1,0-2.64A2.16,2.16,0,0,0,902.94,477.85Z" transform="translate(-90.85 -368.53)"/><path class="cls-1" d="M515.29,589.84l-23.87,20c-19.87-22.3-38.85-43.61-57.51-64.54-31.78,9.09-28,34.28-26.67,58.52H375.79V389.73l135.08,97.53-52.11,38Zm-107-139.34v76l50.18-39.18Z" transform="translate(-90.85 -368.53)"/><path class="cls-1" d="M354.57,601c-4.63,1.65-7.08,2.87-9.68,3.39-24.9,5-21.92,11.16-30.11-17.6-3.56-12.49-8.81-19.07-22.31-16.4a29.25,29.25,0,0,1-4.87,0c-14,.34-30.91-3.93-41.26,2.42-9.31,5.73-11.46,23.11-17.45,36.92l-31.58-8.41C223.42,532,249,464.08,274.5,396.21l6.41-1C305.33,463.41,329.75,531.65,354.57,601ZM299.26,539.2c-7.14-22.92-13.67-43.83-21.63-69.37L254.42,539.2Z" transform="translate(-90.85 -368.53)"/><path class="cls-1" d="M584.65,517.91l74.64,64.48-20.5,27.54L522.6,500.59l111-104.92,27.27,22L582.6,484.18h67.53v29.54H586.37Z" transform="translate(-90.85 -368.53)"/><path class="cls-1" d="M705.86,610.27l-18.57-25.41,65.57-45.4L667.3,459.2l95-65.27,20.14,24.71-65.29,43.54,85.57,80.41Z" transform="translate(-90.85 -368.53)"/></svg>